<?xml version="1.0" standalone="no"?>
<!DOCTYPE svg PUBLIC "-//W3C//DTD SVG 20010904//EN"
 "http://www.w3.org/TR/2001/REC-SVG-20010904/DTD/svg10.dtd">
<svg version="1.0" xmlns="http://www.w3.org/2000/svg"
 width="172.000000pt" height="287.000000pt" viewBox="0 0 172.000000 287.000000"
 preserveAspectRatio="xMidYMid meet">

<g transform="translate(0.000000,287.000000) scale(0.100000,-0.100000)"
fill="#000000" stroke="none">
<path d="M987 2689 c-3 -12 1 -27 12 -38 9 -9 25 -52 35 -95 11 -44 25 -80 33
-83 8 -3 30 9 51 30 82 78 178 91 212 27 9 -17 5 -20 -45 -30 -55 -11 -105
-52 -105 -85 0 -8 19 -27 43 -44 77 -54 115 -101 142 -180 14 -41 25 -79 25
-84 0 -5 -23 11 -51 35 -72 61 -96 75 -143 82 -49 8 -99 61 -111 116 -17 84
-64 104 -115 50 -17 -18 -31 -26 -35 -20 -17 28 -84 -4 -85 -41 -1 -8 -7 0
-14 16 -7 17 -38 62 -69 100 -31 39 -57 73 -57 78 0 12 33 8 85 -10 32 -10 67
-34 97 -64 45 -45 53 -49 48 -24 -7 39 2 99 24 149 28 62 31 76 18 76 -13 0
-62 -127 -62 -160 l0 -29 -50 34 c-62 41 -146 63 -179 45 -22 -11 -22 -12 26
-63 74 -78 107 -131 99 -162 -6 -22 -12 -25 -49 -25 -23 0 -56 -8 -73 -19 -23
-14 -43 -17 -81 -14 -50 5 -51 5 -111 -50 -78 -72 -89 -77 -151 -72 -101 9
-124 -36 -41 -75 34 -16 49 -28 45 -38 -3 -7 -5 -45 -5 -84 0 -79 -12 -86 -45
-25 -24 44 -32 46 -47 12 -9 -21 -8 -35 11 -80 18 -42 21 -61 14 -82 -11 -32
-48 -55 -80 -50 -41 7 -45 -44 -7 -94 41 -54 93 -167 99 -218 27 -216 70 -375
117 -434 23 -30 29 -44 24 -65 -21 -84 -25 -112 -26 -155 0 -35 4 -49 16 -54
10 -4 20 0 26 10 5 10 18 17 29 17 12 0 23 10 29 25 5 14 11 25 14 25 2 0 20
-29 40 -64 31 -56 34 -67 26 -97 -15 -50 -12 -96 7 -132 9 -18 22 -63 29 -100
11 -58 11 -81 -1 -145 -23 -118 -12 -114 65 28 45 85 148 210 172 210 12 0 10
-38 -2 -45 -6 -3 -10 -19 -10 -35 0 -32 10 -37 79 -42 31 -3 36 -8 54 -56 11
-28 25 -52 33 -52 7 0 26 24 43 53 51 87 46 83 76 58 39 -30 141 -30 203 0 39
19 48 20 82 9 71 -24 74 3 13 144 -19 44 -43 112 -54 150 -14 54 -28 80 -59
111 -22 22 -40 43 -40 47 0 3 11 8 23 12 34 8 75 43 95 79 15 29 18 82 22 512
l5 480 57 30 c33 17 58 37 57 45 0 8 -28 37 -63 65 -53 42 -64 56 -73 96 -27
112 -55 160 -128 222 -38 32 -71 62 -73 67 -8 21 51 60 99 66 27 4 52 11 55
15 8 14 -27 66 -53 78 -56 26 -130 4 -189 -56 -18 -18 -36 -33 -38 -33 -3 0
-10 19 -16 43 -23 89 -53 177 -60 177 -4 0 -10 -9 -13 -21z m56 -294 c9 -8 18
-29 22 -46 9 -42 -10 -61 -52 -53 -53 11 -61 65 -14 101 21 16 27 16 44 -2z
m-98 -68 c13 -31 12 -38 -7 -75 -23 -48 -49 -54 -66 -17 -27 58 -8 125 34 125
19 0 28 -8 39 -33z m-80 -117 c8 -9 12 -25 8 -38 -5 -20 -7 -21 -18 -6 -10 14
-24 16 -78 12 -37 -3 -85 -15 -107 -26 -22 -11 -40 -16 -40 -12 0 4 9 28 20
53 24 55 86 91 138 81 25 -5 33 -3 39 12 6 15 9 10 15 -20 5 -22 15 -47 23
-56z m246 49 c30 -42 32 -65 6 -95 -33 -38 -62 -28 -53 20 4 18 2 46 -4 61 -8
22 -8 30 2 37 18 11 29 6 49 -23z m-80 5 c19 -23 17 -90 -3 -110 -24 -25 -64
-11 -77 26 -23 67 40 132 80 84z m149 -74 c0 -5 -2 -10 -4 -10 -3 0 -8 5 -11
10 -3 6 -1 10 4 10 6 0 11 -4 11 -10z m53 -8 c15 -1 62 -41 50 -43 -7 -1 -19
-2 -25 -3 -7 -1 -22 6 -34 16 -17 15 -21 15 -21 4 0 -8 4 -13 9 -10 4 3 8 0 8
-5 0 -14 -27 -14 -35 0 -4 5 -4 21 -1 35 5 19 10 23 24 15 9 -5 21 -9 25 -9z
m-303 -4 c0 -6 9 -22 21 -34 19 -20 19 -25 7 -62 -12 -34 -16 -38 -35 -31 -40
15 -54 65 -31 114 11 25 38 35 38 13z m258 -110 c22 -51 44 -110 47 -130 7
-35 6 -38 -17 -38 -14 0 -37 13 -53 30 -23 24 -37 30 -60 28 -24 -2 -31 -8
-33 -30 -4 -34 -29 -37 -34 -5 -4 32 -72 38 -88 8 -14 -26 -45 -29 -35 -3 4 9
10 36 12 59 6 47 20 48 61 7 26 -27 49 -30 75 -10 19 15 37 66 37 105 0 19 33
71 46 71 1 0 20 -42 42 -92z m-125 58 c33 -26 14 -127 -27 -134 -22 -5 -66 35
-66 59 0 29 20 64 43 76 29 14 29 14 50 -1z m270 -14 c25 -26 25 -28 7 -29
-11 -1 -19 1 -16 5 2 4 -16 8 -41 9 -50 2 -79 18 -32 18 16 0 29 -3 29 -7 0
-5 5 -8 10 -8 6 0 10 9 10 20 0 26 1 25 33 -8z m-463 -27 c0 -7 7 -20 15 -28
13 -13 11 -16 -13 -22 -15 -4 -49 -22 -75 -42 -55 -38 -54 -34 12 53 44 59 61
70 61 39z m426 -40 c13 4 11 1 -6 -10 l-25 -16 28 6 c15 3 27 1 27 -4 0 -6 7
-8 15 -5 8 4 12 10 9 15 -3 5 -10 7 -15 4 -5 -4 -9 -1 -9 4 0 13 10 14 28 2
10 -6 11 -13 1 -34 -10 -21 -9 -30 2 -44 12 -15 12 -16 -3 -10 -10 3 -18 2
-18 -3 0 -6 7 -10 15 -10 7 0 18 -7 23 -17 6 -11 16 -14 28 -9 15 6 16 5 7 -5
-20 -20 -42 -19 -48 2 -4 11 -11 17 -16 14 -5 -4 -9 -2 -9 3 0 17 -44 5 -50
-13 -6 -17 -7 -16 -13 5 -4 15 -1 27 6 32 17 11 27 10 27 -2 0 -18 18 -10 23
11 3 13 1 19 -6 16 -7 -2 -20 3 -30 11 -16 14 -19 14 -27 2 -6 -9 -10 -10 -10
-3 0 6 -3 18 -6 27 -4 10 -1 16 10 16 10 0 13 6 10 18 -4 12 -3 13 3 4 5 -7
18 -10 29 -7z m109 -6 c-4 -6 -1 -9 6 -8 19 3 70 -22 64 -31 -3 -4 5 -10 17
-13 18 -5 19 -8 8 -21 -14 -18 -50 -22 -50 -5 0 5 4 8 8 5 4 -2 14 -1 22 5 13
7 12 9 -2 10 -39 3 -43 5 -42 21 1 11 -9 18 -32 23 -37 6 -47 25 -13 25 12 0
17 -4 14 -11z m-916 -131 c72 -90 79 -103 61 -106 -42 -7 -93 31 -122 88 -28
59 -43 120 -29 120 5 0 45 -46 90 -102z m928 95 c-4 -3 -2 -13 5 -20 9 -11 9
-17 -3 -24 -11 -7 -10 -9 6 -9 17 0 17 -2 5 -10 -20 -13 -33 -13 -24 1 4 8 -1
9 -17 5 -20 -6 -19 -4 5 10 27 15 28 18 13 29 -22 16 -22 25 0 25 9 0 13 -3
10 -7z m-52 -23 c-3 -4 5 -6 17 -3 18 5 21 3 11 -7 -15 -16 -43 -6 -43 15 0 9
5 13 10 10 6 -4 8 -10 5 -15z m-225 -65 c11 -13 9 -15 -12 -13 -14 1 -25 8
-25 15 0 18 22 16 37 -2z m210 -10 c0 -11 -29 -11 -33 -1 -4 10 1 12 14 9 10
-3 19 -7 19 -8z m-57 -45 l107 0 0 -437 c0 -270 -4 -452 -10 -475 -14 -50 -62
-95 -113 -108 -101 -26 -157 -66 -197 -141 l-34 -64 -23 54 c-14 30 -32 61
-41 68 -9 7 -67 38 -129 68 -165 81 -153 37 -153 586 0 245 3 449 8 454 4 4
113 5 242 1 129 -3 283 -6 343 -6z m-883 -99 c-1 -34 -2 -35 -15 -17 -8 11
-15 33 -15 49 0 25 2 28 15 17 8 -7 15 -28 15 -49z m-26 -23 c21 -52 28 -91
16 -83 -15 9 -60 101 -53 109 13 13 24 5 37 -26z m-36 -33 c15 -33 15 -35 -1
-35 -24 0 -51 26 -44 44 9 24 32 19 45 -9z m784 -998 c-7 -8 -9 -16 -6 -19 2
-3 -2 -8 -11 -12 -14 -5 -14 -2 1 24 10 16 20 27 22 25 3 -3 0 -11 -6 -18z
m-143 -17 c9 -28 7 -32 -16 -29 -4 0 -10 -8 -14 -18 -7 -16 -8 -16 -8 -1 -1 9
6 21 14 25 9 6 11 13 5 23 -11 18 -22 8 -40 -38 -11 -29 -11 -35 1 -43 9 -5
10 -9 2 -9 -21 0 -25 19 -12 58 12 35 34 62 50 62 4 0 12 -13 18 -30z m144
-57 c-17 -25 -17 -25 13 -21 16 3 23 3 16 1 -7 -3 -9 -9 -5 -15 4 -7 0 -9 -11
-5 -13 5 -15 3 -7 -12 6 -10 9 -20 8 -22 -1 -2 4 2 11 10 10 13 12 12 12 -5 0
-36 -15 -46 -35 -24 -12 14 -14 20 -5 20 9 0 8 6 -5 20 -10 11 -14 20 -9 20 5
0 2 5 -6 10 -9 6 -11 10 -3 10 7 0 10 7 7 15 -6 14 -8 13 -21 -2 -13 -17 -13
-16 -4 4 12 23 29 33 48 26 9 -4 8 -12 -4 -30z m-110 -45 c-5 -18 -7 -18 -15
-4 -5 9 -13 16 -19 16 -5 0 -2 -11 7 -25 16 -24 13 -55 -5 -55 -13 0 -20 38
-7 44 8 3 7 7 -3 14 -9 7 -11 15 -4 27 7 12 13 14 17 6 4 -6 12 -11 18 -11 6
0 5 7 -3 18 -13 15 -12 16 2 4 11 -8 15 -21 12 -34z m61 -44 c4 -39 -3 -43
-22 -13 -8 13 -11 32 -6 52 5 26 8 28 16 13 5 -10 11 -33 12 -52z m-144 -9 c0
-8 -2 -15 -4 -15 -2 0 -6 7 -10 15 -3 8 -1 15 4 15 6 0 10 -7 10 -15z m124
-21 c9 -24 7 -28 -9 -14 -17 14 -20 30 -6 30 5 0 12 -7 15 -16z m63 1 c-4 -8
-2 -17 3 -20 13 -8 13 -25 0 -25 -5 0 -10 7 -10 15 0 8 -5 15 -11 15 -6 0 -8
-9 -4 -22 5 -19 4 -20 -5 -8 -10 13 -11 13 -7 0 2 -8 10 -14 16 -12 16 3 14
-13 -4 -28 -9 -8 -15 -9 -15 -2 0 6 -9 9 -19 7 -22 -4 -36 20 -19 31 6 4 8 3
5 -3 -4 -6 0 -13 8 -17 11 -4 14 1 13 21 -2 15 3 28 10 31 7 2 18 10 25 18 16
18 20 17 14 -1z m-120 -27 c-3 -8 -6 -5 -6 6 -1 11 2 17 5 13 3 -3 4 -12 1
-19z m-52 2 c-3 -5 -10 -10 -16 -10 -5 0 -9 5 -9 10 0 6 7 10 16 10 8 0 12 -4
9 -10z m35 0 c0 -5 -2 -10 -4 -10 -3 0 -8 5 -11 10 -3 6 -1 10 4 10 6 0 11 -4
11 -10z m-29 -40 c6 0 7 6 4 13 -4 6 2 2 13 -10 25 -28 36 -30 22 -3 -6 11 -8
20 -6 20 3 0 10 -10 17 -21 9 -17 8 -23 -2 -30 -11 -7 -9 -9 6 -10 16 0 14 -3
-7 -11 -32 -11 -34 -17 -12 -44 8 -10 13 -13 9 -6 -8 15 0 15 26 2 24 -13 24
-28 0 -59 l-18 -24 -13 39 c-7 21 -16 44 -21 49 -4 6 -9 24 -11 40 -2 17 -9
36 -15 43 -7 7 -13 19 -12 25 0 9 2 8 6 0 2 -7 9 -13 14 -13z m119 -75 c0 -5
-5 -3 -10 5 -5 8 -10 20 -10 25 0 6 5 3 10 -5 5 -8 10 -19 10 -25z m-50 1 c0
-9 -7 -12 -20 -9 -11 3 -17 9 -14 14 8 14 34 10 34 -5z"/>
<path d="M1241 2154 c0 -11 3 -14 6 -6 3 7 2 16 -1 19 -3 4 -6 -2 -5 -13z"/>
<path d="M742 1394 c3 -417 3 -419 26 -451 21 -30 68 -53 134 -67 15 -4 52
-26 83 -51 30 -25 58 -45 62 -45 4 0 29 18 55 41 27 22 85 58 129 80 126 62
119 31 119 499 l0 396 -82 -12 c-162 -25 -334 -17 -506 23 l-23 5 3 -418z
m396 165 l3 -126 37 -7 c20 -3 58 -6 85 -6 l47 0 0 -116 0 -115 -87 2 -88 2
-5 -129 c-6 -148 0 -141 -107 -129 l-64 7 1 106 c1 59 1 117 1 130 -1 21 -5
22 -81 22 -77 0 -80 1 -86 26 -4 14 -4 58 -1 97 4 40 7 80 7 90 0 15 11 17 85
17 l85 0 0 130 0 131 83 -3 82 -3 3 -126z"/>
<path d="M975 410 c-3 -5 -1 -10 4 -10 6 0 11 5 11 10 0 6 -2 10 -4 10 -3 0
-8 -4 -11 -10z"/>
</g>
</svg>
